<svg width="24" height="24" viewBox="0 0 24 24" fill="none" xmlns="http://www.w3.org/2000/svg">
<path d="M12 24C18.6274 24 24 18.6274 24 12C24 5.37258 18.6274 0 12 0C5.37258 0 0 5.37258 0 12C0 18.6274 5.37258 24 12 24Z" fill="#F0F0F0"/>
<path d="M16.5195 9.38725H13.5072L12.0011 6.77856L10.495 9.38725H7.48267L8.98895 11.9959L7.48267 14.6046H10.495L12.0011 17.2133L13.5072 14.6046H16.5195L15.0132 11.9959L16.5195 9.38725ZM13.8515 11.9959L12.9264 13.5985H11.076L10.1507 11.9959L11.0759 10.3934H12.9263L13.8515 11.9959ZM12.0011 8.79077L12.3454 9.38721H11.6568L12.0011 8.79077ZM9.22543 10.3934H9.91412L9.56978 10.9898L9.22543 10.3934ZM9.22543 13.5985L9.56982 13.0021L9.91417 13.5985H9.22543ZM12.0011 15.2011L11.6568 14.6046H12.3454L12.0011 15.2011ZM14.7767 13.5985H14.0881L14.4324 13.0021L14.7767 13.5985ZM14.0881 10.3934H14.7767L14.4324 10.9898L14.0881 10.3934Z" fill="#0052B4"/>
<path d="M19.4705 2.60461H4.53076C3.43562 3.47686 2.49643 4.53633 1.7619 5.73507H22.2393C21.5048 4.53638 20.5656 3.47686 19.4705 2.60461Z" fill="#0052B4"/>
<path d="M4.53076 21.3873H19.4704C20.5656 20.515 21.5048 19.4556 22.2393 18.2568H1.7619C2.49648 19.4555 3.43567 20.515 4.53076 21.3873Z" fill="#0052B4"/>
</svg>
