<svg width="26" height="26" viewBox="0 0 26 26" fill="none" xmlns="http://www.w3.org/2000/svg">
    <path d="M25.578 13C25.578 15.4877 24.8403 17.9196 23.4582 19.988C22.0761 22.0565 20.1117 23.6687 17.8134 24.6207C15.515 25.5727 12.986 25.8218 10.546 25.3364C8.10613 24.8511 5.86492 23.6532 4.10584 21.8941C2.34675 20.135 1.1488 17.8938 0.663474 15.4539C0.178145 13.014 0.427233 10.4849 1.37924 8.18656C2.33125 5.88821 3.94342 3.92377 6.01188 2.54167C8.08034 1.15957 10.5122 0.421875 12.9999 0.421875C16.3315 0.435809 19.5228 1.76547 21.8786 4.12132C24.2344 6.47716 25.5641 9.66836 25.578 13Z" fill="#E8E8E8"/>
    <path d="M1.95569 11.1577C1.9302 11.1578 1.90476 11.1552 1.87979 11.1501C1.83049 11.1402 1.78362 11.1207 1.74187 11.0926C1.70011 11.0646 1.66429 11.0286 1.63644 10.9868C1.60859 10.9449 1.58926 10.898 1.57955 10.8486C1.56985 10.7993 1.56996 10.7485 1.57988 10.6992C1.92367 9.0079 2.63803 7.41378 3.67157 6.03154C3.73249 5.95032 3.82317 5.89663 3.92368 5.88227C4.02419 5.86791 4.12628 5.89406 4.20751 5.95498C4.28873 6.0159 4.34243 6.10659 4.35678 6.20709C4.37114 6.3076 4.34499 6.4097 4.28407 6.49092C3.31856 7.78204 2.65126 9.27113 2.33019 10.851C2.31258 10.9374 2.26571 11.0151 2.19749 11.071C2.12927 11.1269 2.04387 11.1575 1.95569 11.1577Z" fill="#CDCDCD"/>
    <path d="M5.62013 4.8777C5.54216 4.87771 5.46604 4.8539 5.40197 4.80947C5.3379 4.76504 5.28892 4.7021 5.26159 4.62908C5.23426 4.55605 5.22988 4.47642 5.24904 4.40084C5.26819 4.32526 5.30997 4.25733 5.36878 4.20614C5.75593 3.86984 6.1647 3.55928 6.59247 3.27645C6.67717 3.22224 6.77981 3.20353 6.8782 3.22438C6.97658 3.24523 7.06281 3.30396 7.11825 3.38787C7.17368 3.47178 7.19387 3.57414 7.17444 3.67282C7.15502 3.77149 7.09754 3.85856 7.01444 3.9152C6.61476 4.17958 6.23281 4.46982 5.87103 4.78408C5.80148 4.84462 5.71233 4.87788 5.62013 4.8777Z" fill="#CDCDCD"/>
    <path d="M9.60871 11.7133C10.6774 11.7133 11.5438 10.8469 11.5438 9.7782C11.5438 8.7095 10.6774 7.84314 9.60871 7.84314C8.54 7.84314 7.67365 8.7095 7.67365 9.7782C7.67365 10.8469 8.54 11.7133 9.60871 11.7133Z" fill="#CDCDCD"/>
    <path d="M25.3377 15.4581C25.0925 16.6931 24.6626 17.8841 24.0624 18.9909C23.7698 18.961 23.488 18.8648 23.2382 18.7097C22.9884 18.5545 22.7773 18.3445 22.6208 18.0955C22.4643 17.8466 22.3666 17.5653 22.3351 17.2729C22.3036 16.9806 22.3391 16.6849 22.439 16.4083C22.5388 16.1317 22.7003 15.8816 22.9113 15.6767C23.1223 15.4719 23.3772 15.3179 23.6566 15.2263C23.936 15.1347 24.2326 15.108 24.5239 15.1482C24.8152 15.1883 25.0935 15.2943 25.3377 15.4581Z" fill="#CDCDCD"/>
    <path d="M10.595 19.8508C11.6637 19.8508 12.5301 18.9845 12.5301 17.9158C12.5301 16.8471 11.6637 15.9807 10.595 15.9807C9.52633 15.9807 8.65997 16.8471 8.65997 17.9158C8.65997 18.9845 9.52633 19.8508 10.595 19.8508Z" fill="#CDCDCD"/>
    <path d="M16.7596 20.5403C17.4845 20.5403 18.0721 19.9527 18.0721 19.2278C18.0721 18.5029 17.4845 17.9153 16.7596 17.9153C16.0348 17.9153 15.4471 18.5029 15.4471 19.2278C15.4471 19.9527 16.0348 20.5403 16.7596 20.5403Z" fill="#CDCDCD"/>
    <path d="M18.2923 11.7512C19.0171 11.7512 19.6048 11.1636 19.6048 10.4387C19.6048 9.71385 19.0171 9.12622 18.2923 9.12622C17.5674 9.12622 16.9798 9.71385 16.9798 10.4387C16.9798 11.1636 17.5674 11.7512 18.2923 11.7512Z" fill="#CDCDCD"/>
    <path d="M17.1955 7.94165C17.558 7.94165 17.8518 7.64784 17.8518 7.2854C17.8518 6.92296 17.558 6.62915 17.1955 6.62915C16.8331 6.62915 16.5393 6.92296 16.5393 7.2854C16.5393 7.64784 16.8331 7.94165 17.1955 7.94165Z" fill="#CDCDCD"/>
    </svg>
    